# xmcd
#
# Track frame offsets: 
#        150
#        13450
#        27195
#        37925
#        51825
#        65315
#        75740
#        87075
#        98930
#        109400
#        125485
#        137750
#        150965
#        163790
#        174375
#        187945
#        199545
#        210250
#        219020
#        235095
#        247595
#        259780
#        273995
#        285130
#        297305
#        310505
#        322895
#
# Disc length: 4476 seconds
#
# Revision: 0
# Processed by: cddbd v1.5.2PL0 Copyright (c) Steve Scherf et al.
# Submitted via: ExactAudioCopy v1.0b3
#
DISCID=5b117a1b
DTITLE=Various Artist - Barnyard Soul!
DYEAR=1900
DGENRE=Soul
TTITLE0=Lou Courtney - Hot Butter 'N All, Pt. 1
TTITLE1=Isaac Clark - Do the Dog Funk
TTITLE2=Piney Brown - Everything But You
TTITLE3=Don Gardner - You Babe
TTITLE4=Frankie Seay - All I Want Is Loving You
TTITLE5=B.B. Brown - Low Down Dirty Tramp
TTITLE6=The Rhythm King - Party Time
TTITLE7=Bobby Boseman - Astrological Soul Train
TTITLE8=Al Gardner - Watch Yourself
TTITLE9=Willie West - Fairchild
TTITLE10=Intensions - I Don't Get Down Like That
TTITLE11=Jesse Anderson - Swing Too High
TTITLE12=Benny Gordon and The Soul Bros - A Kiss To Build A Dream On
TTITLE13=Otis Clay - Baby Jane
TTITLE14=Roscoe and Friends - Barnyard Soul
TTITLE15=Ralph Jackson - Jambalaya
TTITLE16=Tony Borders - Lonely Weekends
TTITLE17=Joe Haywood - I'm Walking
TTITLE18=Lowell Fulsom - Why Don't We Do It in the Road
TTITLE19=Sterling Magee - Oh, She Was Pretty
TTITLE20=Larry Birdsong - Every Night in the Week
TTITLE21=Billy Davis - Stanky
TTITLE22=Gene "Bowlegs" Miller - Frankenstein Walk
TTITLE23=Guitar Ray - Funky Pete, Pt. 1
TTITLE24=Sir Sidney Wallace and The Belairs - Green Power
TTITLE25=Chuck Simmons - Sissy
TTITLE26=Joe Valentine - Hands on, Hands Off
EXTD=
EXTT0=
EXTT1=
EXTT2=
EXTT3=
EXTT4=
EXTT5=
EXTT6=
EXTT7=
EXTT8=
EXTT9=
EXTT10=
EXTT11=
EXTT12=
EXTT13=
EXTT14=
EXTT15=
EXTT16=
EXTT17=
EXTT18=
EXTT19=
EXTT20=
EXTT21=
EXTT22=
EXTT23=
EXTT24=
EXTT25=
EXTT26=
PLAYORDER=
